<svg width="46" height="46" viewBox="-2 0 40 40" fill="none" xmlns="http://www.w3.org/2000/svg"><path d="M 21.793768,36.111468 C 21.793768,37.184468 22.662368,37.874168 23.607568,37.874168 24.425068,37.874168 25.089268,37.388868 25.370268,36.545768 L 26.060068,34.425468 H 32.267868 L 32.983168,36.545768 C 33.264168,37.388868 33.928368,37.874168 34.745868,37.874168 35.691068,37.874168 36.559668,37.184468 36.559668,36.111468 36.559668,35.856068 36.508568,35.600568 36.431968,35.396168 L 31.807968,22.393068 C 31.322668,21.013568 30.530668,20.196068 29.202268,20.196068 27.873868,20.196068 27.107468,21.013568 26.622068,22.393068 L 21.921468,35.396168 C 21.844868,35.600568 21.793768,35.856068 21.793768,36.111468 Z M 27.132968,31.232168 29.151168,25.152068 H 29.227768 L 31.220468,31.232168 Z" fill="#1cb0f6" stroke="#1cb0f6" stroke-width="0.1" stroke-linecap="round" stroke-linejoin="round"/><path d="M 1.4873678,8.3092684 1.4872978,8.3098684 H 1.4984078 6.2163678 C 7.3439678,13.791568 9.7862678,18.553868 13.542568,22.594968 10.788768,24.636268 6.7222678,26.555768 1.3370678,28.350768 L 1.3257878,28.354568 1.3156978,28.360868 C 0.95489784,28.586368 0.70126784,28.872068 0.56239784,29.219268 0.42379784,29.565768 0.40304784,29.964568 0.49232784,30.411068 L 0.49539784,30.426368 0.50297784,30.439968 C 0.72968784,30.848068 1.0409678,31.116468 1.4377678,31.233168 1.8316278,31.349068 2.2969278,31.311668 2.8272078,31.134868 H 2.8272178 L 2.8294078,31.134068 C 8.3344678,29.155768 12.691368,26.961768 15.896268,24.550268 17.725068,25.959868 19.804368,27.213068 22.133668,28.310368 L 22.233068,28.357168 22.270368,28.253868 23.225568,25.611568 23.256968,25.524668 23.172868,25.486468 C 21.295168,24.633968 19.613268,23.670768 18.126868,22.596968 21.883468,18.891368 24.366168,14.127468 25.577568,8.3098684 H 30.165968 V 8.3104684 L 30.176968,8.3092684 C 30.582268,8.2642684 30.908368,8.1277684 31.144668,7.8914684 31.380968,7.6551684 31.517468,7.3290684 31.562468,6.9237684 L 31.563668,6.9126684 31.562468,6.9016684 C 31.517468,6.4963684 31.380968,6.1702684 31.144668,5.9339784 30.908368,5.6976784 30.582268,5.5611784 30.176968,5.5161484 L 30.177068,5.5155384 H 30.165968 18.308868 C 18.372768,5.4118984 18.412968,5.2978384 18.428468,5.1739284 18.452768,4.9794884 18.415468,4.7674884 18.324768,4.5406684 V 4.5406584 L 18.324068,4.5389984 C 17.633968,2.8999984 17.070568,1.7281884 16.634068,1.0283884 16.454168,0.62662844 16.201868,0.34677844 15.871568,0.20523844 15.540568,0.06336844 15.147368,0.06740844 14.700868,0.20136844 L 14.700768,0.20098844 14.692468,0.20430844 C 14.248068,0.38206844 13.940368,0.62261844 13.795568,0.93625844 13.649768,1.2521984 13.679868,1.6189384 13.859868,2.0240884 L 13.863368,2.0318584 13.868068,2.0389384 C 14.035668,2.2902884 14.291968,2.8016184 14.638168,3.5806884 L 14.637868,3.5808484 14.642168,3.5886384 C 15.074768,4.3673284 15.327968,4.9189984 15.410868,5.2506384 L 15.410568,5.2507084 15.412968,5.2580084 C 15.434968,5.3240284 15.454968,5.3783284 15.472668,5.4198184 15.481568,5.4405384 15.490468,5.4594284 15.499468,5.4756084 15.506268,5.4877284 15.515168,5.5022684 15.526568,5.5155384 H 1.4984078 V 5.5149184 L 1.4873678,5.5161484 C 1.0820778,5.5611784 0.75597784,5.6976784 0.51967784,5.9339784 0.28338784,6.1702684 0.14687784,6.4963684 0.10184784,6.9016684 L 0.10061784,6.9126684 0.10184784,6.9237684 C 0.14687784,7.3290684 0.28338784,7.6551684 0.51967784,7.8914684 0.75597784,8.1277684 1.0820778,8.2642684 1.4873678,8.3092684 Z M 22.519668,8.3098684 C 21.482168,13.304868 19.274668,17.417668 15.898768,20.652468 12.350068,17.080068 10.099568,12.966268 9.1442678,8.3098684 Z" fill="#1cb0f6" stroke="#1cb0f6" stroke-width="0.1" stroke-linecap="round" stroke-linejoin="round"/><mask id="mask0_8151_150496" maskUnits="userSpaceOnUse" x="5" y="4" width="32" height="32"><path d="M 6.6693,12.31 C 5.891,12.2235 5.45861,11.7911 5.37213,11.0128 5.45861,10.2345 5.891,9.80213 6.6693,9.71566 H 20.9382 C 20.8517,9.71566 20.8084,9.62918 20.8084,9.45622 20.8084,9.62918 20.7652,9.58594 20.6787,9.3265 20.5922,8.98059 20.3328,8.41849 19.9004,7.64018 19.5545,6.86188 19.2951,6.34302 19.1221,6.08358 18.7762,5.30528 19.0356,4.74317 19.9004,4.39726 20.7652,4.13783 21.3706,4.39726 21.7165,5.17556 22.1489,5.86739 22.711,7.03484 23.4028,8.67792 23.5757,9.11031 23.5325,9.45622 23.2731,9.71566 H 35.3367 C 36.115,9.80213 36.5474,10.2345 36.6339,11.0128 36.5474,11.7911 36.115,12.2235 35.3367,12.31 H 30.6669 C 29.4562,18.1905 26.9484,22.99 23.1433,26.7086 26.343,29.0435 30.4507,30.8595 35.4665,32.1567 36.3312,32.5891 36.6771,33.1944 36.5042,33.9727 36.0718,35.0105 35.2935,35.3131 34.1693,34.8807 28.8941,33.3241 24.527,31.2054 21.0679,28.5246 17.8682,30.946 13.5011,33.1512 7.96647,35.1402 6.92873,35.4861 6.19367,35.2699 5.76128,34.4916 5.58832,33.6268 5.84776,32.9782 6.53958,32.5458 11.9877,30.7298 16.0954,28.784 18.8627,26.7086 15.0577,22.6441 12.593,17.8446 11.4688,12.31 Z M 14.1929,12.31 C 15.1441,17.0663 17.4358,21.2605 21.0679,24.8925 24.527,21.6064 26.7754,17.4122 27.8132,12.31 Z" fill="#1cb0f6"/></mask><g mask="url(#mask0_8151_150496)" id="g3" transform="translate(-5.1708322,-3.8001316)"><rect opacity="0.3" width="40.0741" height="15.287" transform="matrix(0.866026,-0.499998,0.500002,0.866024,-0.699463,23.8603)" fill="#84d8ff" id="rect3" x="0" y="0"/></g></svg>